<svg width="11" height="17" viewBox="0 0 11 17" fill="none" xmlns="http://www.w3.org/2000/svg">
<path d="M6.016 2.408C6.576 2.504 7.08 2.672 7.528 2.912C7.992 3.136 8.384 3.416 8.704 3.752C9.024 4.088 9.272 4.464 9.448 4.88C9.624 5.28 9.712 5.704 9.712 6.152V6.584H7.888V6.296C7.888 5.768 7.712 5.32 7.36 4.952C7.024 4.584 6.576 4.328 6.016 4.184V7.616C7.344 7.776 8.352 8.144 9.04 8.72C9.744 9.28 10.096 10.056 10.096 11.048V11.192C10.096 12.264 9.72 13.128 8.968 13.784C8.232 14.424 7.248 14.784 6.016 14.864V16.328H4.288V14.816C3.584 14.704 2.976 14.512 2.464 14.24C1.968 13.952 1.552 13.616 1.216 13.232C0.896 12.832 0.656 12.408 0.496 11.96C0.336 11.496 0.256 11.032 0.256 10.568V9.992H2.08V10.28C2.08 11.048 2.272 11.664 2.656 12.128C3.04 12.592 3.584 12.904 4.288 13.064V9.152C3.088 8.992 2.168 8.648 1.528 8.12C0.904 7.576 0.592 6.824 0.592 5.864V5.72C0.592 5.208 0.688 4.76 0.88 4.376C1.088 3.976 1.36 3.64 1.696 3.368C2.032 3.08 2.424 2.856 2.872 2.696C3.32 2.52 3.792 2.408 4.288 2.36V0.871999H6.016V2.408ZM8.224 11.192C8.224 10.632 8.048 10.216 7.696 9.944C7.344 9.672 6.784 9.472 6.016 9.344V13.136C6.704 13.056 7.24 12.848 7.624 12.512C8.024 12.176 8.224 11.736 8.224 11.192ZM2.464 5.72C2.464 6.168 2.592 6.536 2.848 6.824C3.12 7.096 3.6 7.296 4.288 7.424V4.088C3.776 4.168 3.344 4.344 2.992 4.616C2.64 4.888 2.464 5.256 2.464 5.72Z" fill="#9FB3B2"/>
</svg>
