<svg width="92" height="54" viewBox="0 0 92 54" fill="none" xmlns="http://www.w3.org/2000/svg">
<path d="M10.224 6.336C10.224 5.664 9.96 5.08 9.432 4.584C8.92 4.088 8.192 3.84 7.248 3.84C6.448 3.84 5.816 4.008 5.352 4.344C4.888 4.664 4.656 5.104 4.656 5.664C4.656 5.952 4.712 6.216 4.824 6.456C4.936 6.68 5.128 6.888 5.4 7.08C5.688 7.256 6.056 7.416 6.504 7.56C6.968 7.704 7.552 7.84 8.256 7.968C10.016 8.288 11.36 8.824 12.288 9.576C13.216 10.328 13.68 11.44 13.68 12.912V13.2C13.68 13.984 13.536 14.696 13.248 15.336C12.976 15.96 12.576 16.496 12.048 16.944C11.52 17.392 10.88 17.736 10.128 17.976C9.376 18.216 8.528 18.336 7.584 18.336C6.48 18.336 5.504 18.184 4.656 17.88C3.824 17.56 3.128 17.128 2.568 16.584C2.008 16.024 1.584 15.376 1.296 14.64C1.008 13.888 0.864 13.072 0.864 12.192V11.472H4.032V12.048C4.032 13.056 4.32 13.864 4.896 14.472C5.488 15.064 6.4 15.36 7.632 15.36C8.592 15.36 9.304 15.152 9.768 14.736C10.232 14.32 10.464 13.824 10.464 13.248C10.464 12.976 10.416 12.72 10.32 12.48C10.224 12.224 10.056 12 9.816 11.808C9.576 11.6 9.248 11.416 8.832 11.256C8.416 11.096 7.888 10.96 7.248 10.848C6.4 10.704 5.624 10.52 4.92 10.296C4.216 10.056 3.6 9.744 3.072 9.36C2.56 8.976 2.16 8.496 1.872 7.92C1.584 7.344 1.44 6.64 1.44 5.808V5.664C1.44 4.976 1.576 4.344 1.848 3.768C2.136 3.176 2.528 2.664 3.024 2.232C3.536 1.8 4.144 1.464 4.848 1.224C5.568 0.983999 6.368 0.863999 7.248 0.863999C8.24 0.863999 9.12 1.008 9.888 1.296C10.656 1.568 11.296 1.944 11.808 2.424C12.336 2.904 12.728 3.456 12.984 4.08C13.256 4.704 13.392 5.36 13.392 6.048V6.912H10.224V6.336ZM30.8713 11.664V18H27.7033V1.2H34.2793C35.1433 1.2 35.8953 1.344 36.5353 1.632C37.1753 1.904 37.7033 2.272 38.1193 2.736C38.5513 3.184 38.8713 3.704 39.0793 4.296C39.3033 4.872 39.4153 5.464 39.4153 6.072V6.648C39.4153 7.272 39.3033 7.888 39.0793 8.496C38.8713 9.088 38.5513 9.624 38.1193 10.104C37.7033 10.568 37.1753 10.944 36.5353 11.232C35.8953 11.52 35.1433 11.664 34.2793 11.664H30.8713ZM30.8713 8.64H33.9673C34.6713 8.64 35.2233 8.448 35.6233 8.064C36.0393 7.68 36.2473 7.184 36.2473 6.576V6.288C36.2473 5.68 36.0393 5.184 35.6233 4.8C35.2233 4.416 34.6713 4.224 33.9673 4.224H30.8713V8.64ZM53.9186 1.2H57.0866V14.976H64.7186V18H53.9186V1.2ZM79.6539 1.2H90.8859V4.224H86.8539V14.976H90.8859V18H79.6539V14.976H83.6859V4.224H79.6539V1.2ZM1.296 37.2H13.392V40.224H8.928V54H5.76V40.224H1.296V37.2ZM27.2713 37.2H39.3673V40.224H34.9033V54H31.7353V40.224H27.2713V37.2ZM53.9186 37.2H64.5266V40.224H57.0866V44.064H64.2386V47.088H57.0866V50.976H64.8146V54H53.9186V37.2ZM90.9579 54H87.7899V48.96C87.7899 48.576 87.6859 48.264 87.4779 48.024C87.2859 47.784 86.9579 47.664 86.4939 47.664H82.8459V54H79.6779V37.2H86.1099C86.9739 37.2 87.7339 37.32 88.3899 37.56C89.0459 37.8 89.5899 38.136 90.0219 38.568C90.4699 38.984 90.8059 39.472 91.0299 40.032C91.2699 40.592 91.3899 41.192 91.3899 41.832V42.408C91.3899 43.096 91.2059 43.744 90.8379 44.352C90.4699 44.944 89.9019 45.4 89.1339 45.72V46.152C89.6939 46.216 90.1339 46.432 90.4539 46.8C90.7899 47.168 90.9579 47.632 90.9579 48.192V54ZM82.8459 44.64H85.8699C86.6379 44.64 87.2219 44.464 87.6219 44.112C88.0219 43.744 88.2219 43.232 88.2219 42.576V42.288C88.2219 41.728 88.0219 41.248 87.6219 40.848C87.2219 40.432 86.6379 40.224 85.8699 40.224H82.8459V44.64Z" fill="#00474B"/>
</svg>
